<mxfile host="65bd71144e">
    <diagram id="cM84b1idHpJyXE-Hd9De" name="Page-1">
        <mxGraphModel dx="1054" dy="617" grid="1" gridSize="10" guides="1" tooltips="1" connect="1" arrows="1" fold="1" page="1" pageScale="1" pageWidth="827" pageHeight="1169" math="0" shadow="0">
            <root>
                <mxCell id="0"/>
                <mxCell id="1" parent="0"/>
                <mxCell id="2" value="Gestion des taches" style="html=1;" parent="1" vertex="1">
                    <mxGeometry x="330" y="50" width="110" height="50" as="geometry"/>
                </mxCell>
                <mxCell id="3" value="Elève" style="shape=umlActor;verticalLabelPosition=bottom;verticalAlign=top;html=1;" vertex="1" parent="1">
                    <mxGeometry x="50" y="310" width="30" height="60" as="geometry"/>
                </mxCell>
                <mxCell id="4" value="Bénévole" style="shape=umlActor;verticalLabelPosition=bottom;verticalAlign=top;html=1;" vertex="1" parent="1">
                    <mxGeometry x="50" y="720" width="30" height="60" as="geometry"/>
                </mxCell>
                <mxCell id="5" value="Voir mes taches" style="ellipse;whiteSpace=wrap;html=1;fillColor=#008a00;fontColor=#ffffff;strokeColor=#005700;" vertex="1" parent="1">
                    <mxGeometry x="250" y="400" width="140" height="70" as="geometry"/>
                </mxCell>
                <mxCell id="7" value="ajouter une tache" style="ellipse;whiteSpace=wrap;html=1;fillColor=#a20025;fontColor=#ffffff;strokeColor=#6F0000;" vertex="1" parent="1">
                    <mxGeometry x="500" y="310" width="140" height="70" as="geometry"/>
                </mxCell>
                <mxCell id="8" value="supprimer une tache" style="ellipse;whiteSpace=wrap;html=1;fillColor=#a20025;fontColor=#ffffff;strokeColor=#6F0000;" vertex="1" parent="1">
                    <mxGeometry x="500" y="460" width="140" height="70" as="geometry"/>
                </mxCell>
                <mxCell id="9" value="classer une tache" style="ellipse;whiteSpace=wrap;html=1;fillColor=#a20025;fontColor=#ffffff;strokeColor=#6F0000;" vertex="1" parent="1">
                    <mxGeometry x="500" y="630" width="140" height="70" as="geometry"/>
                </mxCell>
                <mxCell id="10" value="valider une tache" style="ellipse;whiteSpace=wrap;html=1;fillColor=#a20025;fontColor=#ffffff;strokeColor=#6F0000;" vertex="1" parent="1">
                    <mxGeometry x="500" y="790" width="140" height="70" as="geometry"/>
                </mxCell>
                <mxCell id="11" value="attribuer une tache" style="ellipse;whiteSpace=wrap;html=1;fillColor=#008a00;fontColor=#ffffff;strokeColor=#005700;" vertex="1" parent="1">
                    <mxGeometry x="250" y="610" width="140" height="70" as="geometry"/>
                </mxCell>
                <mxCell id="12" value="" style="endArrow=open;endFill=1;endSize=12;html=1;entryX=0;entryY=0.5;entryDx=0;entryDy=0;" edge="1" parent="1" target="11">
                    <mxGeometry width="160" relative="1" as="geometry">
                        <mxPoint x="70" y="749" as="sourcePoint"/>
                        <mxPoint x="230" y="749" as="targetPoint"/>
                    </mxGeometry>
                </mxCell>
                <mxCell id="13" value="" style="endArrow=open;endFill=1;endSize=12;html=1;" edge="1" parent="1" target="5">
                    <mxGeometry width="160" relative="1" as="geometry">
                        <mxPoint x="70" y="339.5" as="sourcePoint"/>
                        <mxPoint x="230" y="339.5" as="targetPoint"/>
                    </mxGeometry>
                </mxCell>
                <mxCell id="14" value="include" style="endArrow=open;endSize=12;dashed=1;html=1;entryX=0.5;entryY=1;entryDx=0;entryDy=0;exitX=0.5;exitY=0;exitDx=0;exitDy=0;" edge="1" parent="1" source="11" target="5">
                    <mxGeometry x="0.2857" y="20" width="160" relative="1" as="geometry">
                        <mxPoint x="330" y="610" as="sourcePoint"/>
                        <mxPoint x="490" y="610" as="targetPoint"/>
                        <mxPoint as="offset"/>
                    </mxGeometry>
                </mxCell>
                <mxCell id="15" value="extend" style="endArrow=open;endSize=12;dashed=1;html=1;exitX=0;exitY=0.5;exitDx=0;exitDy=0;entryX=0.618;entryY=0.993;entryDx=0;entryDy=0;entryPerimeter=0;" edge="1" parent="1" source="10" target="11">
                    <mxGeometry x="-0.2633" y="-15" width="160" relative="1" as="geometry">
                        <mxPoint x="340" y="679" as="sourcePoint"/>
                        <mxPoint x="350" y="830" as="targetPoint"/>
                        <mxPoint as="offset"/>
                    </mxGeometry>
                </mxCell>
                <mxCell id="16" value="extend" style="endArrow=open;endSize=12;dashed=1;html=1;exitX=0.023;exitY=0.755;exitDx=0;exitDy=0;exitPerimeter=0;entryX=1.017;entryY=0.398;entryDx=0;entryDy=0;entryPerimeter=0;" edge="1" parent="1" source="7" target="5">
                    <mxGeometry x="0.0832" y="17" width="160" relative="1" as="geometry">
                        <mxPoint x="390" y="434.5" as="sourcePoint"/>
                        <mxPoint x="390" y="480" as="targetPoint"/>
                        <mxPoint as="offset"/>
                    </mxGeometry>
                </mxCell>
                <mxCell id="17" value="extend" style="endArrow=open;endSize=12;dashed=1;html=1;exitX=-0.001;exitY=0.612;exitDx=0;exitDy=0;exitPerimeter=0;entryX=1;entryY=0;entryDx=0;entryDy=0;" edge="1" parent="1" source="8" target="11">
                    <mxGeometry x="0.0957" y="17" width="160" relative="1" as="geometry">
                        <mxPoint x="350" y="540" as="sourcePoint"/>
                        <mxPoint x="510" y="540" as="targetPoint"/>
                        <mxPoint as="offset"/>
                    </mxGeometry>
                </mxCell>
                <mxCell id="18" value="extend" style="endArrow=open;endSize=12;dashed=1;html=1;entryX=1.005;entryY=0.612;entryDx=0;entryDy=0;entryPerimeter=0;exitX=0.017;exitY=0.624;exitDx=0;exitDy=0;exitPerimeter=0;" edge="1" parent="1" source="9" target="11">
                    <mxGeometry x="-0.1993" y="-13" width="160" relative="1" as="geometry">
                        <mxPoint x="480" y="620" as="sourcePoint"/>
                        <mxPoint x="490" y="665" as="targetPoint"/>
                        <mxPoint x="-1" as="offset"/>
                    </mxGeometry>
                </mxCell>
            </root>
        </mxGraphModel>
    </diagram>
</mxfile>